<?xml version="1.0" encoding="utf-8"?>
<!-- Generator: Adobe Illustrator 26.0.1, SVG Export Plug-In . SVG Version: 6.00 Build 0)  -->
<svg version="1.1" id="Layer_1" xmlns="http://www.w3.org/2000/svg" xmlns:xlink="http://www.w3.org/1999/xlink" x="0px" y="0px"
	 viewBox="0 0 76 48" style="enable-background:new 0 0 76 48;" xml:space="preserve">
<g>
	<g>
		<path d="M58.2,24c0-2.7-2.6-5-5.7-5H5.7C2.6,19,0,21.3,0,24s2.6,5,5.7,5h46.8C55.7,29,58.2,26.7,58.2,24z"/>
		<path d="M32.1,14H60c3.3,0,6.1-2.2,6.1-5S63.4,4,60,4H32.1C28.8,4,26,6.2,26,9S28.8,14,32.1,14z"/>
		<path d="M44.1,34H24.7c-3.3,0-6.1,2.2-6.1,5c0,2.7,2.7,5,6.1,5H44c3.3,0,6.1-2.2,6.1-5C50.2,36.2,47.4,34,44.1,34z"/>
		<path d="M61.9,34h-2.4c-3.3,0-6.1,2.2-6.1,5c0,2.7,2.7,5,6.1,5h2.4c3.3,0,6.1-2.2,6.1-5S65.3,34,61.9,34z"/>
		<path d="M69.9,19h-2.4c-3.3,0-6.1,2.2-6.1,5s2.7,5,6.1,5h2.4c3.3,0,6.1-2.2,6.1-5S73.2,19,69.9,19z"/>
	</g>
</g>
</svg>
